<svg width="360" height="360" viewBox="0 0 360 360" fill="none" xmlns="http://www.w3.org/2000/svg">
<path fill-rule="evenodd" clip-rule="evenodd" d="M180 360C279.411 360 360 279.411 360 180C360 80.5887 279.411 0 180 0C80.5887 0 0 80.5887 0 180C0 279.411 80.5887 360 180 360ZM104.388 77.6173C85.7494 75.5013 69.5918 79.8307 62.1697 88.9295L15.7118 145.884C8.46244 154.771 10.6479 166.864 21.4562 177.671L92.6271 248.833C103.435 259.64 121.251 267.545 139.456 269.612L256.122 282.857C274.761 284.973 290.918 280.644 298.34 271.545L344.798 214.591C352.048 205.704 349.862 193.61 339.054 182.803L267.883 111.641C257.075 100.835 239.259 92.9293 221.054 90.8625L104.388 77.6173Z" fill="black"/>
</svg>
